Coordinates
version=1
nRows=18
nColumns=22
inDegrees=yes

Units are S.I. units (second, meters, Newtons, ...)
If the header above contains a line with 'inDegrees', this indicates whether rotational values are in degrees (yes) or radians (no).

endheader
time	pelvis_tilt	pelvis_list	pelvis_rotation	pelvis_tx	pelvis_ty	pelvis_tz	hip_flexion_r	hip_adduction_r	hip_rotation_r	knee_angle_r	ankle_angle_r	subtalar_angle_r	hip_flexion_l	hip_adduction_l	hip_rotation_l	knee_angle_l	ankle_angle_l	subtalar_angle_l	lumbar_extension	lumbar_bending	lumbar_rotation
      1.31000000	      0.24304240	     -2.14263736	      1.27217607	     -1.60306138	      1.07055321	     -0.30001392	     -0.91525592	      5.26777071	     -5.19154613	    -13.82614498	     15.31147794	     -4.70754602	      6.72165514	     -3.64933223	     -1.22893019	    -28.78756908	     16.48597071	      2.56056128	     -5.27997511	      0.65461423	     -5.69084664
      1.32000000	      0.21926569	     -2.28383811	      1.32433555	     -1.60203853	      1.07016387	     -0.29909899	     -0.99447772	      5.47886159	     -5.19765580	    -13.74715727	     15.39278921	     -4.63318257	      7.66445612	     -3.81819718	     -0.87431098	    -30.52997810	     16.14981423	      2.94899338	     -5.47374667	      0.83151531	     -5.63564681
      1.33000000	      0.21253072	     -2.40785362	      1.37367704	     -1.60092323	      1.06982882	     -0.29823769	     -1.10575665	      5.67050678	     -5.19701207	    -13.65235954	     15.46415867	     -4.57247089	      8.62152238	     -3.96065067	     -0.54563205	    -32.30941511	     15.75189452	      3.34223289	     -5.68409742	      0.99013370	     -5.56836307
      1.34000000	      0.21351078	     -2.51079096	      1.40733585	     -1.59971983	      1.06954051	     -0.29740055	     -1.23363421	      5.83798890	     -5.18884576	    -13.55021395	     15.52996950	     -4.52623686	      9.58995067	     -4.07760766	     -0.26406917	    -34.09458607	     15.28463057	      3.74831219	     -5.90341488	      1.12109577	     -5.46970217
      1.35000000	      0.21732868	     -2.58940736	      1.42170050	     -1.59842260	      1.06929294	     -0.29658934	     -1.37160112	      5.97640765	     -5.16987352	    -13.44485919	     15.58533053	     -4.49444863	     10.56357608	     -4.16924622	     -0.04350980	    -35.85372707	     14.79196684	      4.14125882	     -6.12552308	      1.22111577	     -5.34184471
      1.36000000	      0.22467612	     -2.64433037	      1.41631733	     -1.59701270	      1.06908502	     -0.29580870	     -1.52405758	      6.08608594	     -5.13995393	    -13.33137235	     15.63021998	     -4.47475670	     11.53183972	     -4.24014791	      0.10566574	    -37.55747683	     14.30794275	      4.47328537	     -6.34856914	      1.29213284	     -5.18238050
      1.37000000	      0.23506839	     -2.67544892	      1.38720682	     -1.59548789	      1.06892007	     -0.29504050	     -1.69228779	      6.16711335	     -5.09792266	    -13.20719305	     15.66997351	     -4.46168605	     12.48504396	     -4.29499200	      0.17501843	    -39.17238395	     13.86954891	      4.69878585	     -6.57346211	      1.33028787	     -4.99792521
      1.38000000	      0.23117694	     -2.67579804	      1.33765533	     -1.59385439	      1.06877257	     -0.29430110	     -1.85024130	      6.20903769	     -5.05187124	    -13.08715529	     15.70697927	     -4.45155606	     13.43846335	     -4.32485652	      0.17384259	    -40.67777688	     13.50631081	      4.81189191	     -6.78019611	      1.32958426	     -4.78808898
      1.39000000	      0.23972149	     -2.65413439	      1.26831260	     -1.59205393	      1.06869280	     -0.29357953	     -2.05094420	      6.22477982	     -4.99419829	    -12.92844410	     15.71082583	     -4.43142988	     14.35087655	     -4.34515334	      0.09151563	    -42.04212681	     13.23053583	      4.78224024	     -6.99241946	      1.29854983	     -4.55377855
      1.40000000	      0.21750575	     -2.60864499	      1.18219303	     -1.59015077	      1.06859060	     -0.29288598	     -2.21865046	      6.20828489	     -4.93958153	    -12.78370636	     15.75034781	     -4.40315032	     15.27837568	     -4.34873445	     -0.05315523	    -43.26722457	     13.05884317	      4.63716193	     -7.16877114	      1.23709605	     -4.31613950
      1.41000000	      0.18230801	     -2.53670921	      1.08887728	     -1.58810017	      1.06850220	     -0.29223382	     -2.38690810	      6.15797066	     -4.89607457	    -12.62873904	     15.80201300	     -4.35721366	     16.19248109	     -4.33301179	     -0.25861456	    -44.32944466	     12.96716540	      4.38917841	     -7.32456663	      1.14299386	     -4.08888106
      1.42000000	      0.15050946	     -2.44319429	      0.98698589	     -1.58588377	      1.06844934	     -0.29161934	     -2.57520901	      6.07983118	     -4.85490153	    -12.46148902	     15.85387136	     -4.28910553	     17.06949420	     -4.30110833	     -0.51079251	    -45.21727549	     12.91600006	      4.10472346	     -7.47487806	      1.02237328	     -3.85529508
      1.43000000	      0.10835091	     -2.32913575	      0.88399221	     -1.58351217	      1.06839657	     -0.29104945	     -2.76140299	      5.97457707	     -4.82773687	    -12.29474757	     15.91850084	     -4.19789078	     17.92700737	     -4.25200521	     -0.80113907	    -45.93147383	     12.88978219	      3.79249742	     -7.60421468	      0.87742741	     -3.64520315
      1.44000000	      0.06739315	     -2.19738115	      0.78465649	     -1.58098764	      1.06835734	     -0.29053848	     -2.95814111	      5.84637544	     -4.80999082	    -12.12696779	     15.98873514	     -4.09481847	     18.74843284	     -4.18359888	     -1.11525504	    -46.46412639	     12.86603107	      3.51143910	     -7.72982536	      0.71420923	     -3.44439024
      1.45000000	      0.03307848	     -2.04622628	      0.69274808	     -1.57829841	      1.06832675	     -0.29007653	     -3.17584886	      5.69657014	     -4.77984921	    -11.95165213	     16.06756166	     -4.00011734	     19.52720088	     -4.09259726	     -1.44298879	    -46.81845125	     12.82293865	      3.30780364	     -7.85369299	      0.53056490	     -3.28772761
      1.46000000	     -0.02092351	     -1.88298932	      0.58937679	     -1.57546027	      1.06825425	     -0.28964445	     -3.36517398	      5.52693400	     -4.77563074	    -11.80355597	     16.13771853	     -3.89580857	     20.28728561	     -3.98609284	     -1.78537313	    -46.99658482	     12.76735274	      3.10342265	     -7.94622354	      0.33104070	     -3.11548309
      1.47000000	     -0.08056603	     -1.72656560	      0.49757145	     -1.57248269	      1.06813645	     -0.28927705	     -3.54270116	      5.36088039	     -4.80342446	    -11.67986178	     16.23604828	     -3.78600297	     21.02196308	     -3.87703004	     -2.11639654	    -47.01198316	     12.69582849	      2.89467360	     -8.02676823	      0.14163569	     -2.94213781
      1.48000000	     -0.13514428	     -1.54593849	      0.41437445	     -1.56935420	      1.06801143	     -0.28896212	     -3.73431989	      5.16949665	     -4.81041403	    -11.55490387	     16.31841562	     -3.71290467	     21.70794331	     -3.73274320	     -2.44267110	    -46.85328066	     12.59251041	      2.78583701	     -8.10777029	     -0.07332438	     -2.81017523
